<?xml version="1.0" standalone="no"?><!DOCTYPE svg PUBLIC "-//W3C//DTD SVG 1.1//EN" "http://www.w3.org/Graphics/SVG/1.1/DTD/svg11.dtd"><svg t="1671958278411" class="icon" viewBox="0 0 1024 1024" version="1.1" xmlns="http://www.w3.org/2000/svg" p-id="7374" xmlns:xlink="http://www.w3.org/1999/xlink" width="400" height="400"><path d="M891.630744 134.463706c46.869142 0 84.988137 32.417436 84.988137 72.398164v740.667424c0 39.934185-38.118995 72.421435-84.988137 72.421436H132.369256C85.73283 1020.136903 47.730194 987.742739 47.381119 947.529294V206.931685c0-39.980728 38.118995-72.398164 84.988137-72.398164h37.839735C170.976956 98.113358 205.977546 68.744512 248.797418 68.744512l71.630199-1.675561c0-36.932139 35.233308-67.022408 78.565156-67.022408h229.924094c43.35512 0 78.658243 30.090269 78.658243 67.022408v1.605746h67.74383c42.819872 0 77.820463 29.345575 78.565156 65.789009h37.839735-0.069815z m-646.486978 1.233399v78.890959c0 1.745375 1.698832 3.141675 3.723467 3.141676h526.265534c2.09445 0 3.723467-1.3963 3.723467-3.141676v-78.890959c0-1.745375-1.629017-3.141675-3.630381-3.141676h-105.257761a40.539248 40.539248 0 0 1-26.436616-9.285396 30.11354 30.11354 0 0 1-11.077315-22.689878V67.068951c0-1.722104-1.629017-3.141675-3.63038-3.141675h-229.85428a3.956184 3.956184 0 0 0-2.629698 0.907595 2.93223 2.93223 0 0 0-1.093769 2.23408v33.511204a30.090269 30.090269 0 0 1-11.030771 22.736422 40.539248 40.539248 0 0 1-26.459888 9.308667H248.774147c-1.978092 0-3.583837 1.373028-3.630381 3.071861z m656.447253 811.832189V206.931685a7.982183 7.982183 0 0 0-2.908959-6.050634 10.751511 10.751511 0 0 0-7.051316-2.466797H853.860825v16.243625c0 37.001954-35.303123 67.022408-78.658243 67.022408H248.890505c-43.192219 0.209445-78.425526-29.787737-78.728058-67.022408v-16.243625H132.369256a10.751511 10.751511 0 0 0-7.051316 2.466797 7.982183 7.982183 0 0 0-2.908959 6.050634v740.667424c0 4.654334 4.468161 8.517431 9.960275 8.517431h759.261488a10.751511 10.751511 0 0 0 7.051316-2.466797 7.982183 7.982183 0 0 0 2.908959-6.050634v-0.069815z m-422.380801-276.70015c21.712468 0 39.30585 12.915777 39.305849 28.85687 0 15.964365-17.593382 28.85687-39.212763 28.85687H255.546202c-21.642653 0-39.212763-12.892505-39.212763-28.85687 0-15.941094 17.57011-28.85687 39.212763-28.85687h223.757102-0.069815z m204.790691-156.106359c21.619381 0 39.189491 12.892505 39.189491 28.85687 0 15.964365-17.57011 28.85687-39.189491 28.856871H255.546202c-21.642653 0-39.212763-12.892505-39.212763-28.856871 0-15.964365 17.57011-28.85687 39.212763-28.85687h428.431435z m0-150.428071c21.619381 0 39.189491 12.892505 39.189491 28.85687 0 15.941094-17.57011 28.85687-39.189491 28.85687H255.546202c-21.642653 0-39.212763-12.915777-39.212763-28.85687 0-15.964365 17.57011-28.85687 39.212763-28.85687h428.431435z" fill="#1B7AFF" p-id="7375"></path></svg>